<svg width="5089" height="1108" viewBox="0 0 5089 1108" fill="none" xmlns="http://www.w3.org/2000/svg">
<path d="M4966.44 843.235V264.765H5088.35V843.235H4966.44Z" fill="white"/>
<path d="M4758.68 843.235V264.765H4880.59V843.235H4758.68Z" fill="white"/>
<path d="M4480.04 852C4440.2 852 4404.08 843.235 4371.68 825.706C4339.81 807.645 4314.58 783.21 4295.98 752.401C4277.39 721.592 4268.1 687.064 4268.1 648.818C4268.1 610.572 4277.39 576.31 4295.98 546.032C4314.58 515.754 4339.81 491.85 4371.68 474.321C4403.55 456.26 4439.67 447.23 4480.04 447.23C4520.41 447.23 4556.53 455.995 4588.41 473.524C4620.28 491.053 4645.51 515.223 4664.1 546.032C4682.69 576.31 4691.99 610.572 4691.99 648.818C4691.99 687.064 4682.69 721.592 4664.1 752.401C4645.51 783.21 4620.28 807.645 4588.41 825.706C4556.53 843.235 4520.41 852 4480.04 852ZM4480.04 741.246C4497.57 741.246 4512.98 737.528 4526.26 730.091C4539.54 722.123 4549.63 711.234 4556.53 697.422C4563.97 683.08 4567.69 666.879 4567.69 648.818C4567.69 630.758 4563.97 615.087 4556.53 601.807C4549.1 587.996 4538.74 577.373 4525.46 569.936C4512.71 561.968 4497.57 557.984 4480.04 557.984C4463.04 557.984 4447.9 561.968 4434.62 569.936C4421.35 577.373 4410.99 587.996 4403.55 601.807C4396.11 615.619 4392.4 631.554 4392.4 649.615C4392.4 667.144 4396.11 683.08 4403.55 697.422C4410.99 711.234 4421.35 722.123 4434.62 730.091C4447.9 737.528 4463.04 741.246 4480.04 741.246Z" fill="white"/>
<path d="M3921.59 611.369V518.941H4040.31C4065.28 518.941 4084.4 512.567 4097.68 499.818C4111.49 487.07 4118.4 469.806 4118.4 448.027C4118.4 427.841 4111.76 411.109 4098.48 397.829C4085.2 384.549 4066.08 377.909 4041.11 377.909H3921.59V280.701H4055.45C4092.64 280.701 4125.3 287.872 4153.46 302.214C4181.61 316.025 4203.66 335.414 4219.59 360.38C4235.53 385.346 4243.49 414.03 4243.49 446.433C4243.49 479.367 4235.53 508.317 4219.59 533.283C4203.66 557.718 4181.35 576.841 4152.66 590.652C4123.98 604.464 4090.25 611.369 4051.47 611.369H3921.59ZM3825.98 843.235V280.701H3951.07V843.235H3825.98ZM4131.94 843.235L3956.65 601.011L4071.39 569.936L4280.15 843.235H4131.94Z" fill="white"/>
<path d="M3417.79 852C3375.83 852 3338.38 843.501 3305.45 826.503C3273.04 808.973 3247.55 784.804 3228.95 753.995C3210.36 723.185 3201.07 688.392 3201.07 649.615C3201.07 610.838 3210.1 576.31 3228.16 546.032C3246.75 515.223 3271.72 491.053 3303.06 473.524C3334.4 455.995 3369.72 447.23 3409.03 447.23C3447.28 447.23 3481.01 455.463 3510.22 471.93C3539.44 488.398 3562.28 511.239 3578.75 540.455C3595.74 569.67 3604.24 603.135 3604.24 640.85C3604.24 647.756 3603.71 655.193 3602.65 663.16C3602.12 670.597 3600.79 679.362 3598.67 689.455L3264.81 690.251V606.588L3546.87 605.791L3494.29 640.85C3493.75 618.54 3490.3 600.214 3483.93 585.872C3477.55 570.998 3467.99 559.843 3455.24 552.406C3443.03 544.439 3427.89 540.455 3409.83 540.455C3390.7 540.455 3373.97 544.97 3359.63 554C3345.82 562.499 3334.93 574.717 3326.96 590.652C3319.52 606.588 3315.8 625.977 3315.8 648.818C3315.8 671.66 3319.79 691.314 3327.76 707.781C3336.26 723.717 3347.94 736.2 3362.82 745.23C3378.22 753.729 3396.28 757.979 3417 757.979C3436.12 757.979 3453.38 754.791 3468.79 748.417C3484.19 741.512 3497.74 731.419 3509.43 718.139L3576.36 785.07C3557.23 807.38 3534.13 824.112 3507.03 835.267C3479.94 846.422 3450.2 852 3417.79 852Z" fill="white"/>
<path d="M3029.08 852C2987.11 852 2949.66 843.501 2916.73 826.503C2884.33 808.973 2858.83 784.804 2840.24 753.995C2821.65 723.185 2812.35 688.392 2812.35 649.615C2812.35 610.838 2821.38 576.31 2839.44 546.032C2858.03 515.223 2883 491.053 2914.34 473.524C2945.68 455.995 2981.01 447.23 3020.31 447.23C3058.56 447.23 3092.29 455.463 3121.51 471.93C3150.72 488.398 3173.56 511.239 3190.03 540.455C3207.03 569.67 3215.53 603.135 3215.53 640.85C3215.53 647.756 3215 655.193 3213.93 663.16C3213.4 670.597 3212.07 679.362 3209.95 689.455L2876.09 690.251V606.588L3158.16 605.791L3105.57 640.85C3105.04 618.54 3101.59 600.214 3095.21 585.872C3088.84 570.998 3079.28 559.843 3066.53 552.406C3054.31 544.439 3039.17 540.455 3021.11 540.455C3001.99 540.455 2985.25 544.97 2970.91 554C2957.1 562.499 2946.21 574.717 2938.24 590.652C2930.81 606.588 2927.09 625.977 2927.09 648.818C2927.09 671.66 2931.07 691.314 2939.04 707.781C2947.54 723.717 2959.23 736.2 2974.1 745.23C2989.5 753.729 3007.56 757.979 3028.28 757.979C3047.4 757.979 3064.67 754.791 3080.07 748.417C3095.48 741.512 3109.02 731.419 3120.71 718.139L3187.64 785.07C3168.52 807.38 3145.41 824.112 3118.32 835.267C3091.23 846.422 3061.48 852 3029.08 852Z" fill="white"/>
<path d="M2044.99 852C2005.15 852 1969.03 843.235 1936.63 825.706C1904.76 807.645 1879.52 783.21 1860.93 752.401C1842.34 721.592 1833.05 687.064 1833.05 648.818C1833.05 610.572 1842.34 576.31 1860.93 546.032C1879.52 515.754 1904.76 491.85 1936.63 474.321C1968.5 456.26 2004.62 447.23 2044.99 447.23C2085.36 447.23 2121.48 455.995 2153.36 473.524C2185.23 491.053 2210.46 515.223 2229.05 546.032C2247.64 576.31 2256.94 610.572 2256.94 648.818C2256.94 687.064 2247.64 721.592 2229.05 752.401C2210.46 783.21 2185.23 807.645 2153.36 825.706C2121.48 843.235 2085.36 852 2044.99 852ZM2044.99 741.246C2062.52 741.246 2077.93 737.528 2091.21 730.091C2104.49 722.123 2114.58 711.234 2121.48 697.422C2128.92 683.08 2132.64 666.879 2132.64 648.818C2132.64 630.758 2128.92 615.087 2121.48 601.807C2114.05 587.996 2103.69 577.373 2090.41 569.936C2077.66 561.968 2062.52 557.984 2044.99 557.984C2027.99 557.984 2012.85 561.968 1999.57 569.936C1986.29 577.373 1975.94 587.996 1968.5 601.807C1961.06 615.619 1957.34 631.554 1957.34 649.615C1957.34 667.144 1961.06 683.08 1968.5 697.422C1975.94 711.234 1986.29 722.123 1999.57 730.091C2012.85 737.528 2027.99 741.246 2044.99 741.246Z" fill="white"/>
<path d="M1578.62 854.719C1537.3 847.432 1500.09 833.59 1467.01 813.194C1434.54 792.366 1407.28 766.522 1385.21 735.662C1363.66 704.893 1348.61 670.955 1340.05 633.846C1331.59 596.214 1330.9 557.257 1338.01 516.977C1345.11 476.696 1359.03 440.584 1379.76 408.641C1400.59 376.174 1426.34 349.43 1457.02 328.409C1487.69 307.388 1521.8 292.906 1559.34 284.961C1597.5 276.586 1637.24 276.042 1678.56 283.329C1722.51 291.078 1760.23 305.012 1791.75 325.132C1823.78 345.344 1850.45 370.003 1871.75 399.11L1774.69 467.759C1762.81 449.482 1747.19 434.053 1727.83 421.47C1709 408.98 1685.98 400.336 1658.78 395.539C1634.72 391.296 1611.74 391.561 1589.87 396.334C1568.6 400.675 1549.31 409.14 1531.99 421.728C1515.19 434.408 1500.71 450.734 1488.56 470.707C1476.93 490.771 1468.86 513.62 1464.34 539.253C1459.73 565.409 1459.45 589.903 1463.52 612.735C1468.11 635.659 1476.13 655.951 1487.58 673.612C1499.55 691.366 1514.74 706.18 1533.14 718.055C1552.06 730.023 1573.56 738.128 1597.62 742.371C1625.87 747.352 1651.24 747.241 1673.74 742.037C1696.23 736.834 1716.44 727.723 1734.38 714.704L1802.89 812.547C1771.88 832.429 1737.86 846.389 1700.85 854.425C1664.35 862.554 1623.61 862.652 1578.62 854.719Z" fill="white"/>
<g filter="url(#filter0_d_0_1)">
<circle cx="554" cy="554" r="512" fill="white"/>
</g>
<path d="M719.5 232L705 228L229.5 703L261.5 712.5L271 743.5L302 753L312 785L343.5 794.5L353 825L383 835L393 866.5L407.5 870.5L883 395L851 386L842.5 354.5L810 345L802 314L770 305L760 273L729 263.5L719.5 232Z" fill="#89531C"/>
<path d="M696.5 581.5C696.5 437.5 667.5 365 615 318L428.5 504.5C420 633 443 718 498.5 779.5L696.5 581.5Z" fill="#E1A261"/>
<path d="M580 476.5C580 476.5 590.061 473.576 594.5 469C600.649 462.662 595.714 454.17 601.5 447.5C606.372 441.883 618 438 618 438" stroke="#EABA87" stroke-width="10" stroke-linecap="round"/>
<path d="M606 502.5C606 502.5 616.061 499.576 620.5 495C626.649 488.662 621.714 480.17 627.5 473.5C632.372 467.883 644 464 644 464" stroke="#EABA87" stroke-width="10" stroke-linecap="round"/>
<path d="M629 526.5C629 526.5 639.061 523.576 643.5 519C649.649 512.662 644.714 504.17 650.5 497.5C655.372 491.883 667 488 667 488" stroke="#EABA87" stroke-width="10" stroke-linecap="round"/>
<path d="M538.5 609L506.5 577" stroke="white" stroke-width="10" stroke-linecap="round"/>
<path d="M572 622L491 541" stroke="white" stroke-width="10" stroke-linecap="round"/>
<path fill-rule="evenodd" clip-rule="evenodd" d="M518 481.5C500 462 523.5 440.5 541 458.5C541 458.5 632 551 636.5 555.5C641 560 641.5 564.5 636.5 570L627.5 579.5C596.804 610.869 578 609.459 538 570C498 530.541 508.5 506 526 490L518 481.5ZM541 473.5L532.5 482L523.5 472.5C516.5 464.5 526 456.833 532 463.5L541 473.5Z" fill="white"/>
<path d="M541 473.5L532.5 482L523.5 472.5C516.5 464.5 526 456.833 532 463.5M541 473.5C541 473.5 538 470.167 532 463.5M541 473.5L532 463.5M518 481.5C500 462 523.5 440.5 541 458.5C541 458.5 632 551 636.5 555.5C641 560 641.5 564.5 636.5 570L627.5 579.5C596.804 610.869 578 609.459 538 570C498 530.541 508.5 506 526 490L518 481.5Z" stroke="white"/>
<path d="M2775.97 256C2802.53 256 2825.64 260.516 2845.29 269.546C2865.48 278.045 2883.01 289.997 2897.88 305.401L2821.39 381.893C2816.08 376.581 2809.97 372.597 2803.06 369.941C2796.69 366.754 2788.99 365.16 2779.96 365.16C2763.49 365.16 2750.48 369.941 2740.91 379.503C2731.35 389.064 2726.57 402.079 2726.57 418.546V455.995H2838.12V477.598C2829.64 485.915 2821.92 494.642 2814.92 504.045C2802.59 520.59 2792.85 538.716 2784.88 559.577H2726.57V843.235H2604.66V559.577H2481.16V843.235H2359.25V559.577H2273.99V455.995H2359.25V439.262C2359.25 405.797 2366.16 376.05 2379.97 350.021C2394.31 323.462 2414.76 302.48 2441.32 287.075C2467.88 271.671 2499.22 263.968 2535.34 263.968C2571.46 263.968 2601.74 271.405 2626.18 286.278C2635.27 291.616 2643.48 297.615 2650.81 304.276C2660.83 294.201 2672.28 285.546 2685.14 278.311C2710.64 263.437 2740.91 256 2775.97 256ZM2838.12 559.577H2832.68C2834.42 555.921 2836.23 552.409 2838.12 549.022V559.577ZM2543.31 368.348C2523.12 368.348 2507.72 373.925 2497.1 385.08C2486.47 395.704 2481.16 410.843 2481.16 430.497V455.995H2604.66V431.294C2604.66 411.64 2599.35 396.235 2588.73 385.08C2578.1 373.925 2562.96 368.348 2543.31 368.348Z" fill="white"/>
<defs>
<filter id="filter0_d_0_1" x="0" y="0" width="1108" height="1108" filterUnits="userSpaceOnUse" color-interpolation-filters="sRGB">
<feFlood flood-opacity="0" result="BackgroundImageFix"/>
<feColorMatrix in="SourceAlpha" type="matrix" values="0 0 0 0 0 0 0 0 0 0 0 0 0 0 0 0 0 0 127 0" result="hardAlpha"/>
<feMorphology radius="2" operator="dilate" in="SourceAlpha" result="effect1_dropShadow_0_1"/>
<feOffset/>
<feGaussianBlur stdDeviation="20"/>
<feComposite in2="hardAlpha" operator="out"/>
<feColorMatrix type="matrix" values="0 0 0 0 0 0 0 0 0 0 0 0 0 0 0 0 0 0 0.1 0"/>
<feBlend mode="normal" in2="BackgroundImageFix" result="effect1_dropShadow_0_1"/>
<feBlend mode="normal" in="SourceGraphic" in2="effect1_dropShadow_0_1" result="shape"/>
</filter>
</defs>
</svg>
