<svg width="3756" height="605" viewBox="0 0 3756 605" fill="none" xmlns="http://www.w3.org/2000/svg">
<path d="M3633.44 587.235V8.76474H3755.35V587.235H3633.44Z" fill="black"/>
<path d="M3425.68 587.235V8.76474H3547.59V587.235H3425.68Z" fill="black"/>
<path d="M3147.04 596C3107.2 596 3071.08 587.235 3038.68 569.706C3006.81 551.645 2981.58 527.21 2962.98 496.401C2944.39 465.592 2935.1 431.064 2935.1 392.818C2935.1 354.572 2944.39 320.31 2962.98 290.032C2981.58 259.754 3006.81 235.85 3038.68 218.321C3070.55 200.26 3106.67 191.23 3147.04 191.23C3187.41 191.23 3223.53 199.995 3255.41 217.524C3287.28 235.053 3312.51 259.223 3331.1 290.032C3349.69 320.31 3358.99 354.572 3358.99 392.818C3358.99 431.064 3349.69 465.592 3331.1 496.401C3312.51 527.21 3287.28 551.645 3255.41 569.706C3223.53 587.235 3187.41 596 3147.04 596ZM3147.04 485.246C3164.57 485.246 3179.98 481.528 3193.26 474.091C3206.54 466.123 3216.63 455.234 3223.53 441.422C3230.97 427.08 3234.69 410.879 3234.69 392.818C3234.69 374.758 3230.97 359.087 3223.53 345.807C3216.1 331.996 3205.74 321.373 3192.46 313.936C3179.71 305.968 3164.57 301.984 3147.04 301.984C3130.04 301.984 3114.9 305.968 3101.62 313.936C3088.35 321.373 3077.99 331.996 3070.55 345.807C3063.11 359.619 3059.4 375.554 3059.4 393.615C3059.4 411.144 3063.11 427.08 3070.55 441.422C3077.99 455.234 3088.35 466.123 3101.62 474.091C3114.9 481.528 3130.04 485.246 3147.04 485.246Z" fill="black"/>
<path d="M2588.59 355.369V262.941H2707.31C2732.28 262.941 2751.4 256.567 2764.68 243.818C2778.49 231.07 2785.4 213.806 2785.4 192.027C2785.4 171.841 2778.76 155.109 2765.48 141.829C2752.2 128.549 2733.08 121.909 2708.11 121.909H2588.59V24.7006H2722.45C2759.64 24.7006 2792.3 31.8717 2820.46 46.2139C2848.61 60.025 2870.66 79.4136 2886.59 104.38C2902.53 129.346 2910.49 158.03 2910.49 190.433C2910.49 223.367 2902.53 252.317 2886.59 277.283C2870.66 301.718 2848.35 320.841 2819.66 334.652C2790.98 348.463 2757.25 355.369 2718.47 355.369H2588.59ZM2492.98 587.235V24.7006H2618.07V587.235H2492.98ZM2798.94 587.235L2623.65 345.011L2738.39 313.936L2947.15 587.235H2798.94Z" fill="black"/>
<path d="M2084.79 596C2042.83 596 2005.38 587.501 1972.45 570.503C1940.04 552.973 1914.55 528.804 1895.95 497.995C1877.36 467.185 1868.07 432.392 1868.07 393.615C1868.07 354.838 1877.1 320.31 1895.16 290.032C1913.75 259.223 1938.72 235.053 1970.06 217.524C2001.4 199.995 2036.72 191.23 2076.03 191.23C2114.28 191.23 2148.01 199.463 2177.22 215.93C2206.44 232.398 2229.28 255.239 2245.75 284.455C2262.74 313.67 2271.24 347.135 2271.24 384.85C2271.24 391.756 2270.71 399.193 2269.65 407.16C2269.12 414.597 2267.79 423.362 2265.67 433.455L1931.81 434.251V350.588L2213.87 349.791L2161.29 384.85C2160.75 362.54 2157.3 344.214 2150.93 329.872C2144.55 314.998 2134.99 303.843 2122.24 296.406C2110.03 288.439 2094.89 284.455 2076.83 284.455C2057.7 284.455 2040.97 288.97 2026.63 298C2012.82 306.499 2001.93 318.717 1993.96 334.652C1986.52 350.588 1982.8 369.977 1982.8 392.818C1982.8 415.66 1986.79 435.314 1994.76 451.781C2003.26 467.717 2014.94 480.2 2029.82 489.23C2045.22 497.729 2063.28 501.979 2084 501.979C2103.12 501.979 2120.38 498.791 2135.79 492.417C2151.19 485.512 2164.74 475.419 2176.43 462.139L2243.36 529.07C2224.23 551.38 2201.13 568.112 2174.03 579.267C2146.94 590.422 2117.2 596 2084.79 596Z" fill="black"/>
<path d="M1696.08 596C1654.11 596 1616.66 587.501 1583.73 570.503C1551.33 552.973 1525.83 528.804 1507.24 497.995C1488.65 467.185 1479.35 432.392 1479.35 393.615C1479.35 354.838 1488.38 320.31 1506.44 290.032C1525.03 259.223 1550 235.053 1581.34 217.524C1612.68 199.995 1648.01 191.23 1687.31 191.23C1725.56 191.23 1759.29 199.463 1788.51 215.93C1817.72 232.398 1840.56 255.239 1857.03 284.455C1874.03 313.67 1882.53 347.135 1882.53 384.85C1882.53 391.756 1882 399.193 1880.93 407.16C1880.4 414.597 1879.07 423.362 1876.95 433.455L1543.09 434.251V350.588L1825.16 349.791L1772.57 384.85C1772.04 362.54 1768.59 344.214 1762.21 329.872C1755.84 314.998 1746.28 303.843 1733.53 296.406C1721.31 288.439 1706.17 284.455 1688.11 284.455C1668.99 284.455 1652.25 288.97 1637.91 298C1624.1 306.499 1613.21 318.717 1605.24 334.652C1597.81 350.588 1594.09 369.977 1594.09 392.818C1594.09 415.66 1598.07 435.314 1606.04 451.781C1614.54 467.717 1626.23 480.2 1641.1 489.23C1656.5 497.729 1674.56 501.979 1695.28 501.979C1714.4 501.979 1731.67 498.791 1747.07 492.417C1762.48 485.512 1776.02 475.419 1787.71 462.139L1854.64 529.07C1835.52 551.38 1812.41 568.112 1785.32 579.267C1758.23 590.422 1728.48 596 1696.08 596Z" fill="black"/>
<path d="M711.992 596C672.152 596 636.031 587.235 603.628 569.706C571.756 551.645 546.525 527.21 527.933 496.401C509.341 465.592 500.045 431.064 500.045 392.818C500.045 354.572 509.341 320.31 527.933 290.032C546.525 259.754 571.756 235.85 603.628 218.321C635.5 200.26 671.621 191.23 711.992 191.23C752.362 191.23 788.484 199.995 820.355 217.524C852.227 235.053 877.459 259.223 896.051 290.032C914.642 320.31 923.938 354.572 923.938 392.818C923.938 431.064 914.642 465.592 896.051 496.401C877.459 527.21 852.227 551.645 820.355 569.706C788.484 587.235 752.362 596 711.992 596ZM711.992 485.246C729.521 485.246 744.926 481.528 758.206 474.091C771.485 466.123 781.578 455.234 788.484 441.422C795.92 427.08 799.639 410.879 799.639 392.818C799.639 374.758 795.92 359.087 788.484 345.807C781.047 331.996 770.689 321.373 757.409 313.936C744.66 305.968 729.521 301.984 711.992 301.984C694.993 301.984 679.854 305.968 666.575 313.936C653.295 321.373 642.936 331.996 635.5 345.807C628.063 359.619 624.345 375.554 624.345 393.615C624.345 411.144 628.063 427.08 635.5 441.422C642.936 455.234 653.295 466.123 666.575 474.091C679.854 481.528 694.993 485.246 711.992 485.246Z" fill="black"/>
<path d="M245.623 598.719C204.296 591.432 167.091 577.59 134.009 557.194C101.543 536.366 74.2759 510.522 52.2086 479.662C30.6644 448.893 15.6125 414.955 7.05297 377.846C-1.41437 340.214 -2.09677 301.257 5.00578 260.977C12.1083 220.696 26.0273 184.584 46.7627 152.641C67.5903 120.174 93.3421 93.4304 124.018 72.4093C154.694 51.3882 188.802 36.9056 226.342 28.9615C264.497 20.5864 304.238 20.0423 345.565 27.3294C389.507 35.0776 427.235 49.0117 458.747 69.1317C490.783 89.3439 517.45 114.003 538.748 143.11L441.689 211.759C429.809 193.482 414.19 178.053 394.834 165.47C376 152.98 352.982 144.336 325.779 139.539C301.716 135.296 278.745 135.561 256.867 140.334C235.605 144.675 216.312 153.14 198.99 165.728C182.191 178.408 167.715 194.734 155.563 214.707C143.934 234.771 135.86 257.62 131.34 283.253C126.728 309.409 126.455 333.903 130.52 356.735C135.108 379.659 143.127 399.951 154.576 417.612C166.548 435.366 181.736 450.18 200.139 462.055C219.065 474.023 240.56 482.128 264.624 486.371C292.872 491.352 318.243 491.241 340.736 486.037C363.229 480.834 383.445 471.723 401.383 458.704L469.893 556.547C438.878 576.429 404.863 590.389 367.846 598.425C331.352 606.554 290.611 606.652 245.623 598.719Z" fill="black"/>
<path d="M1442.97 0C1469.53 0 1492.64 4.51559 1512.29 13.5459C1532.48 22.045 1550.01 33.9968 1564.88 49.4014L1488.39 125.893C1483.08 120.581 1476.97 116.597 1470.06 113.941C1463.69 110.754 1455.99 109.16 1446.96 109.16C1430.49 109.16 1417.48 113.941 1407.91 123.503C1398.35 133.064 1393.57 146.079 1393.57 162.546V199.995H1505.12V221.598C1496.64 229.915 1488.92 238.642 1481.92 248.045C1469.59 264.59 1459.85 282.716 1451.88 303.577H1393.57V587.235H1271.66V303.577H1148.16V587.235H1026.25V303.577H940.994V199.995H1026.25V183.262C1026.25 149.797 1033.16 120.05 1046.97 94.0215C1061.31 67.4619 1081.76 46.4798 1108.32 31.0752C1134.88 15.6705 1166.22 7.96777 1202.34 7.96777C1238.46 7.96778 1268.74 15.4049 1293.18 30.2783C1302.27 35.6156 1310.48 41.615 1317.81 48.2764C1327.83 38.2013 1339.28 29.5463 1352.14 22.3105C1377.64 7.43713 1407.91 1.86985e-05 1442.97 0ZM1505.12 303.577H1499.68C1501.42 299.921 1503.23 296.409 1505.12 293.022V303.577ZM1210.31 112.348C1190.12 112.348 1174.72 117.925 1164.1 129.08C1153.47 139.704 1148.16 154.843 1148.16 174.497V199.995H1271.66V175.294C1271.66 155.64 1266.35 140.235 1255.73 129.08C1245.1 117.925 1229.96 112.348 1210.31 112.348Z" fill="black"/>
</svg>
